# xmcd
#
# Track frame offsets: 
#        150
#        8043
#        14152
#        20260
#        24205
#        31362
#        37005
#        46407
#        51562
#        56831
#        67803
#        77740
#        87619
#        90894
#        96673
#        108048
#        118167
#        128869
#        138013
#        149016
#        156555
#        163172
#        172070
#        176971
#        181577
#        186182
#        194578
#        202003
#        208254
#        212861
#        219746
#        225907
#        233516
#        246599
#        251245
#        257484
#        261712
#        266866
#        273741
#        279432
#        284157
#        291990
#        298307
#        306019
#        312754
#        323385
#        327096
#
# Disc length: 4505 seconds
#
# Revision: 0
# Processed by: cddbd v1.5.1PL2 Copyright (c) Steve Scherf et al.
# Submitted via: ExactAudioCopy v0.90b4
#
DISCID=e711972f
DTITLE=Various Artist - best of 2005 mixed by DJ Food Stamp hosted by
DTITLE=Rasco
DYEAR=2005
DGENRE=Hip-Hop
TTITLE0=DJ Food Stamp/Intro
TTITLE1=NAS/Dont Body Ya Self (aka the MC Burial)
TTITLE2=Jurassic 5/Red Hot (Stamp Blend)
TTITLE3=Jurassic 5/Red Hot 
TTITLE4=Edan/Fumbling over words that rhyme
TTITLE5=Edan/Fumbling over words that rhyme (Stamp Blend)
TTITLE6=All Natural ft El Da Sensei, All Star/Keep it Movin
TTITLE7=Afu-Ra/Sucka Free
TTITLE8=Atmosphere/Watch Out
TTITLE9=Edo G and Pete Rock/Shed a Tear
TTITLE10=DJ Nu-Mark and Pomo ft MF Doom/Melody (remix)
TTITLE11=Zion I ft Talib Kweli/Temperature
TTITLE12=Cesar Comanche/Up and Down (Stamp Blend)
TTITLE13=Cesar Comanche/Up and Down
TTITLE14=Ghostface Killah and Pete Rock/Be Easy
TTITLE15=Chief Kamachi and The JuJu Mob/No Chorus
TTITLE16=Little Brother/Aint Nobody Like Me
TTITLE17=Pacifics ft Pep Love/Situatons
TTITLE18=Talib Kweli/Never Been in Love (Stamp Blend)
TTITLE19=MF Grimm/Gingerbread Man
TTITLE20=Medaphoar (aka Med)/Cant Hold On
TTITLE21=Danger Doom/Sofa King
TTITLE22=One Be Lo/Decepticons (Pete Rock remix) 
TTITLE23=Braille/10 Years
TTITLE24=Large Professor/After School (Stamp Blend)
TTITLE25=Swollen Members ft DJ Swamp/Black Magic
TTITLE26=Planet Asia ft Prodigy/Stick and Move
TTITLE27=I Self Divine/All I Know
TTITLE28=AZ/The Come Up
TTITLE29=Rapper Big Pooh/Strongest Man
TTITLE30=Rhymefest ft Kanye West/Brand New
TTITLE31=Perceptionist ft Phonte/Black Dialogue
TTITLE32=U.N./Live from Strong Island
TTITLE33=Rasco/What Happened to the Game?
TTITLE34=Big Shug/The Way it is
TTITLE35=Kev Brown ft Kenn Starr, Quartermaine/ Say Something
TTITLE36=Da Beatminerz ft Wordsworth/Came 2 Do
TTITLE37=R.A. The Rugged Man ft Killah Priest, Masta Killa/Chains
TTITLE38=Common/Chi-City (Stamp Blend)
TTITLE39=Prefuse 73 ft Ghostface Killah, El-P/Hideyaface
TTITLE40=Likwit Junkies ft Noelle/Ghetto
TTITLE41=Dave Ghetto ft Mystic, Phonte/Hey Young World pt 2
TTITLE42=9th Wonder and Buckshot/Side Talk
TTITLE43=Dilated Peopled/Back Again
TTITLE44=Immortal Technique ft Chuck D, KRS-One/Bin Laden (remix)
TTITLE45=DJ Food Stamp/Outro
TTITLE46=Common ft Last Poets/The Corner
EXTD=
EXTT0=
EXTT1=
EXTT2=
EXTT3=
EXTT4=
EXTT5=
EXTT6=
EXTT7=
EXTT8=
EXTT9=
EXTT10=
EXTT11=
EXTT12=
EXTT13=
EXTT14=
EXTT15=
EXTT16=
EXTT17=
EXTT18=
EXTT19=
EXTT20=
EXTT21=
EXTT22=
EXTT23=
EXTT24=
EXTT25=
EXTT26=
EXTT27=
EXTT28=
EXTT29=
EXTT30=
EXTT31=
EXTT32=
EXTT33=
EXTT34=
EXTT35=
EXTT36=
EXTT37=
EXTT38=
EXTT39=
EXTT40=
EXTT41=
EXTT42=
EXTT43=
EXTT44=
EXTT45=
EXTT46=
PLAYORDER=
